<svg width="16" height="16" viewBox="0 0 16 16" fill="none" xmlns="http://www.w3.org/2000/svg">
<path d="M1.35342 12.2202C1.35342 12.4602 1.40675 12.7068 1.52008 12.9468C1.63342 13.1868 1.78008 13.4135 1.97341 13.6268C2.30008 13.9868 2.66008 14.2468 3.06675 14.4135C3.46675 14.5802 3.90008 14.6668 4.36675 14.6668C5.04675 14.6668 5.77342 14.5068 6.54008 14.1802C7.30675 13.8535 8.07342 13.4135 8.83342 12.8602C9.60008 12.3002 10.3267 11.6802 11.0201 10.9935C11.7067 10.3002 12.3267 9.5735 12.8801 8.8135C13.4267 8.0535 13.8667 7.2935 14.1867 6.54016C14.5067 5.78016 14.6667 5.0535 14.6667 4.36016C14.6667 3.90683 14.5867 3.4735 14.4267 3.0735C14.2667 2.66683 14.0134 2.2935 13.6601 1.96016C13.2334 1.54016 12.7667 1.3335 12.2734 1.3335C12.0867 1.3335 11.9001 1.3735 11.7334 1.4535C11.5601 1.5335 11.4067 1.6535 11.2867 1.82683L9.74008 4.00683C9.62008 4.1735 9.53342 4.32683 9.47342 4.4735C9.41342 4.6135 9.38008 4.7535 9.38008 4.88016C9.38008 5.04016 9.42675 5.20016 9.52008 5.3535C9.60675 5.50683 9.73342 5.66683 9.89342 5.82683L10.4001 6.3535C10.4734 6.42683 10.5067 6.5135 10.5067 6.62016C10.5067 6.6735 10.5001 6.72016 10.4867 6.7735C10.4667 6.82683 10.4467 6.86683 10.4334 6.90683C10.3134 7.12683 10.1067 7.4135 9.81342 7.76016C9.51342 8.10683 9.19342 8.46016 8.84675 8.8135C8.48675 9.16683 8.14008 9.4935 7.78675 9.7935C7.44008 10.0868 7.15342 10.2868 6.92675 10.4068C6.89342 10.4202 6.85342 10.4402 6.80675 10.4602C6.75342 10.4802 6.70008 10.4868 6.64008 10.4868C6.52675 10.4868 6.44008 10.4468 6.36675 10.3735L5.86008 9.8735C5.69342 9.70683 5.53342 9.58016 5.38008 9.50016C5.22675 9.40683 5.07342 9.36016 4.90675 9.36016C4.78008 9.36016 4.64675 9.38683 4.50008 9.44683C4.35342 9.50683 4.20008 9.5935 4.03341 9.70683L1.82675 11.2735C1.65342 11.3935 1.53342 11.5335 1.46008 11.7002C1.39342 11.8668 1.35342 12.0335 1.35342 12.2202Z" stroke="#292D32" stroke-opacity="0.5" stroke-miterlimit="10"/>
</svg>
